<svg xmlns="http://www.w3.org/2000/svg" width="35" height="35" fill="none"><g clip-path="url(#a)"><path fill="#1572B6" d="M5.047 30.814 2.377.859h29.346L29.05 30.81l-12.018 3.332-11.985-3.327Z"/><path fill="#33A9DC" d="m17.05 31.595 9.711-2.693 2.285-25.594H17.05v28.287Z"/><path fill="#fff" d="M17.05 14.16h4.862l.335-3.761H17.05V6.725h9.213l-.089.986-.903 10.124h-8.22V14.16Z"/><path fill="#EBEBEB" d="m17.072 23.702-.016.005-4.092-1.105-.261-2.93H9.015l.515 5.769 7.525 2.088.017-.005v-3.822Z"/><path fill="#fff" d="m21.6 17.68-.443 4.92-4.098 1.105v3.823l7.532-2.088.055-.62.64-7.14h-3.687Z"/><path fill="#EBEBEB" d="M17.063 6.725v3.674H8.189l-.074-.826-.167-1.862-.088-.986h9.203Zm-.013 7.436v3.674h-4.04l-.073-.825-.168-1.863-.088-.986h4.37Z"/></g><defs><clipPath id="a"><path fill="#fff" d="M.05.5h34v34h-34z"/></clipPath></defs></svg>