<svg width="35" height="35" viewBox="0 0 35 35" fill="none" xmlns="http://www.w3.org/2000/svg">
<g id="html.6e7b1b463015c056aeb9a624c8dc2876.svg" clip-path="url(#clip0_1_27)">
<path id="Vector" d="M4.76483 31.0469L2.04218 0.5H31.9914L29.2687 31.0469L16.9836 34.5" fill="#E34F26"/>
<path id="Vector_2" d="M17.05 31.8438L26.9445 29.1211L29.2687 2.95703H17.05" fill="#EF652A"/>
<path id="Vector_3" d="M17.05 14.3125H12.0695L11.7375 10.4609H17.05V6.74219H7.6203L8.61639 18.0977H17.05V14.3125ZM16.9836 24.0742L12.8 22.9453L12.5344 19.957H8.81561L9.28046 25.8672L16.9836 27.9922V24.0742Z" fill="#EBEBEB"/>
<path id="Vector_4" d="M16.9836 14.3125V18.0977H21.632L21.1672 22.9453L16.9836 24.0742V27.9922L24.6867 25.8672L25.7492 14.3125H16.9836ZM16.9836 6.74219V10.4609H26.0812L26.4133 6.74219H16.9836Z" fill="white"/>
</g>
<defs>
<clipPath id="clip0_1_27">
<rect width="34" height="34" fill="white" transform="translate(0.0499878 0.5)"/>
</clipPath>
</defs>
</svg>
