<svg xmlns="http://www.w3.org/2000/svg" width="35" height="35" fill="none"><g clip-path="url(#a)"><path fill="#E34F26" d="M4.765 31.047 2.042.5h29.95l-2.723 30.547L16.984 34.5"/><path fill="#EF652A" d="m17.05 31.844 9.895-2.723 2.324-26.164H17.05"/><path fill="#EBEBEB" d="M17.05 14.313h-4.98l-.332-3.852h5.312V6.742H7.62l.996 11.356h8.434v-3.785Zm-.066 9.761L12.8 22.945l-.266-2.988H8.816l.464 5.91 7.704 2.125v-3.918Z"/><path fill="#fff" d="M16.984 14.313v3.785h4.648l-.465 4.847-4.183 1.13v3.917l7.703-2.125 1.062-11.555h-8.765Zm0-7.57v3.718h9.097l.332-3.719h-9.43Z"/></g><defs><clipPath id="a"><path fill="#fff" d="M.05.5h34v34h-34z"/></clipPath></defs></svg>