<svg xmlns="http://www.w3.org/2000/svg" width="35" height="35" fill="none"><g clip-path="url(#a)"><path fill="#F7DF1E" d="M.05.5h34v34h-34V.5Z"/><path fill="#000" d="m8.99 28.913 2.602-1.575c.502.89.958 1.643 2.054 1.643 1.05 0 1.712-.41 1.712-2.008V16.11h3.195v10.91c0 3.309-1.94 4.815-4.77 4.815-2.556 0-4.04-1.324-4.793-2.921m11.298-.343 2.602-1.506c.684 1.119 1.575 1.94 3.15 1.94 1.323 0 2.167-.662 2.167-1.575 0-1.095-.867-1.483-2.328-2.122l-.798-.343c-2.305-.98-3.834-2.213-3.834-4.815 0-2.396 1.825-4.222 4.678-4.222 2.032 0 3.492.707 4.542 2.556l-2.488 1.598c-.548-.982-1.14-1.37-2.054-1.37-.936 0-1.529.594-1.529 1.37 0 .958.593 1.346 1.963 1.94l.798.342c2.716 1.164 4.245 2.35 4.245 5.02 0 2.877-2.259 4.451-5.294 4.451-2.967 0-4.884-1.415-5.82-3.263"/></g><defs><clipPath id="a"><path fill="#fff" d="M.05.5h34v34h-34z"/></clipPath></defs></svg>