<svg xmlns="http://www.w3.org/2000/svg" width="35" height="31" fill="none"><g clip-path="url(#a)"><path fill="#fff" d="M.15 15.467c0 2.552 2.492 4.934 6.42 6.277-.784 3.949-.14 7.132 2.01 8.372 2.211 1.275 5.505.393 8.63-2.34 3.047 2.622 6.127 3.654 8.276 2.41 2.208-1.278 2.88-4.677 2.074-8.75 4.091-1.352 6.38-3.384 6.38-5.97 0-2.492-2.496-4.648-6.372-5.982.868-4.241.133-7.347-2.107-8.639-2.16-1.245-5.275-.16-8.366 2.53C13.878.52 10.794-.351 8.556.944 6.4 2.192 5.783 5.433 6.57 9.456 2.775 10.779.15 12.984.15 15.466Z"/><path fill="#53C1DE" d="M26.747 10.808a20.25 20.25 0 0 0-.965-.304c.053-.219.103-.438.149-.659.731-3.55.253-6.41-1.38-7.35-1.565-.903-4.125.038-6.711 2.288-.255.222-.504.451-.747.686-.163-.156-.33-.31-.498-.46-2.71-2.406-5.426-3.42-7.057-2.475-1.564.905-2.027 3.594-1.369 6.958.066.333.14.664.222.993-.384.11-.755.226-1.11.35-3.178 1.107-5.207 2.843-5.207 4.644 0 1.86 2.178 3.725 5.488 4.856.268.091.539.176.811.254-.088.355-.167.712-.236 1.071C7.51 24.966 8 27.59 9.56 28.49c1.61.93 4.315-.026 6.948-2.327.208-.182.417-.375.626-.577.264.254.534.5.811.74 2.55 2.194 5.07 3.08 6.628 2.178 1.61-.931 2.133-3.751 1.453-7.181-.051-.262-.112-.53-.18-.803.19-.056.377-.114.558-.174 3.44-1.14 5.679-2.982 5.679-4.867 0-1.807-2.095-3.555-5.335-4.67Z"/><path fill="#fff" d="M26.001 19.13a16.75 16.75 0 0 1-.504.157 30.104 30.104 0 0 0-1.52-3.802 30.08 30.08 0 0 0 1.461-3.746c.307.09.605.183.892.282 2.777.955 4.471 2.369 4.471 3.458 0 1.16-1.83 2.666-4.8 3.65Zm-1.232 2.442c.3 1.516.343 2.888.144 3.96-.179.963-.538 1.606-.983 1.863-.945.547-2.968-.164-5.149-2.041-.25-.215-.502-.445-.754-.688.845-.925 1.69-2 2.515-3.194 1.45-.129 2.821-.34 4.064-.626.061.247.116.489.163.726ZM12.305 27.3c-.924.327-1.66.336-2.105.08-.946-.546-1.34-2.654-.803-5.48.064-.335.137-.667.22-.997 1.228.272 2.589.467 4.043.585.83 1.169 1.7 2.242 2.576 3.183-.186.18-.377.356-.572.526-1.164 1.018-2.33 1.74-3.359 2.103Zm-4.329-8.178c-1.463-.5-2.671-1.15-3.5-1.86-.744-.637-1.12-1.27-1.12-1.783 0-1.093 1.63-2.486 4.346-3.434.341-.118.686-.226 1.033-.325a30.746 30.746 0 0 0 1.463 3.79 31.204 31.204 0 0 0-1.48 3.844 15.72 15.72 0 0 1-.742-.232Zm1.451-9.877c-.564-2.882-.19-5.056.753-5.602 1.004-.581 3.224.248 5.564 2.325.15.133.3.272.45.416a30.713 30.713 0 0 0-2.556 3.163 31.33 31.33 0 0 0-4.004.623 18.799 18.799 0 0 1-.207-.925Zm12.945 3.197a40.708 40.708 0 0 0-.913-1.501c.958.12 1.875.281 2.736.478a27.35 27.35 0 0 1-.96 2.584 44.584 44.584 0 0 0-.863-1.562ZM17.093 7.3c.591.64 1.183 1.356 1.766 2.132a37.748 37.748 0 0 0-3.547 0A28.253 28.253 0 0 1 17.093 7.3Zm-5.313 5.15a37.8 37.8 0 0 0-.847 1.552 28.302 28.302 0 0 1-.953-2.597c.856-.191 1.77-.348 2.72-.467-.318.497-.625 1.001-.92 1.512Zm.948 7.661c-.983-.11-1.91-.258-2.766-.445.265-.855.592-1.744.973-2.649a37.664 37.664 0 0 0 1.793 3.094Zm4.4 3.637a28.809 28.809 0 0 1-1.805-2.16c.574.022 1.16.034 1.756.034.611 0 1.216-.014 1.811-.04a27.255 27.255 0 0 1-1.762 2.166Zm6.12-6.777c.4.914.738 1.799 1.007 2.64-.87.198-1.81.358-2.8.477a44.67 44.67 0 0 0 .922-1.527c.302-.523.592-1.054.87-1.59Zm-1.982.95a42.03 42.03 0 0 1-1.44 2.322c-.89.064-1.81.097-2.747.097-.934 0-1.843-.03-2.717-.086a36.327 36.327 0 0 1-2.747-4.744 35.988 35.988 0 0 1 2.731-4.735 36.301 36.301 0 0 1 5.47 0 38.62 38.62 0 0 1 1.446 2.309 42.02 42.02 0 0 1 1.294 2.408c-.401.824-.831 1.634-1.29 2.429Zm2.645-14.316c1.005.58 1.396 2.917.764 5.981-.041.2-.086.399-.135.597a30.718 30.718 0 0 0-4.012-.634 30.124 30.124 0 0 0-2.537-3.166c.225-.216.455-.427.69-.633 2.216-1.928 4.286-2.689 5.23-2.145Z"/><path fill="#53C1DE" d="M17.079 12.8a2.68 2.68 0 1 1 0 5.359 2.68 2.68 0 0 1 0-5.36Z"/></g><defs><clipPath id="a"><path fill="#fff" d="M.05.227h34v30.546h-34z"/></clipPath></defs></svg>