<svg xmlns="http://www.w3.org/2000/svg" width="35" height="35" fill="none"><path fill="#C69" fill-rule="evenodd" d="M17.05 2.625a14.875 14.875 0 1 1 0 29.75 14.875 14.875 0 0 1 0-29.75Z" clip-rule="evenodd"/><path fill="#fff" d="M26.38 8.992c-.673-2.642-5.053-3.507-9.2-2.038a20.832 20.832 0 0 0-7.059 4.049c-2.283 2.136-2.647 3.995-2.498 4.771.532 2.742 4.286 4.533 5.83 5.862v.008c-.455.224-3.787 1.912-4.57 3.634-.822 1.819.131 3.123.763 3.299a4.675 4.675 0 0 0 5.045-2.046 5.124 5.124 0 0 0 .502-4.556 5.991 5.991 0 0 1 2.277-.13c2.61.305 3.121 1.933 3.024 2.616a1.72 1.72 0 0 1-.828 1.168c-.183.114-.24.152-.223.237.022.122.106.118.262.091a2.035 2.035 0 0 0 1.42-1.813c.062-1.594-1.469-3.385-4.18-3.34a7.155 7.155 0 0 0-2.326.32 6.001 6.001 0 0 0-.115-.128c-1.676-1.788-4.775-3.054-4.644-5.458.048-.875.352-3.176 5.95-5.968 4.59-2.288 8.264-1.658 8.9-.263.907 1.993-1.964 5.696-6.73 6.23a3.581 3.581 0 0 1-3.01-.762c-.251-.277-.288-.288-.382-.237-.152.084-.055.328 0 .473a2.824 2.824 0 0 0 1.723 1.353 9.129 9.129 0 0 0 5.586-.552c2.891-1.115 5.146-4.223 4.484-6.82ZM14.095 22.454a3.808 3.808 0 0 1-.112 2.446 4.155 4.155 0 0 1-.784 1.214c-.864.943-2.072 1.3-2.59 1-.559-.325-.28-1.654.723-2.713a10.069 10.069 0 0 1 2.628-1.872l.135-.075Z"/></svg>