<svg xmlns="http://www.w3.org/2000/svg" width="35" height="21" fill="none"><g clip-path="url(#a)"><mask id="b" width="35" height="21" x="0" y="0" maskUnits="userSpaceOnUse" style="mask-type:luminance"><path fill="#fff" d="M.05.111h34v20.4h-34V.111Z"/></mask><g mask="url(#b)"><path fill="#38BDF8" fill-rule="evenodd" d="M17.05.111c-4.533 0-7.367 2.267-8.5 6.8 1.7-2.267 3.683-3.117 5.95-2.55 1.293.323 2.218 1.262 3.24 2.3 1.667 1.692 3.597 3.65 7.81 3.65 4.533 0 7.367-2.267 8.5-6.8-1.7 2.267-3.683 3.117-5.95 2.55-1.293-.323-2.218-1.262-3.24-2.3-1.667-1.692-3.596-3.65-7.81-3.65Zm-8.5 10.2c-4.533 0-7.367 2.267-8.5 6.8 1.7-2.267 3.683-3.117 5.95-2.55 1.293.324 2.218 1.262 3.24 2.3 1.667 1.692 3.596 3.65 7.81 3.65 4.533 0 7.367-2.267 8.5-6.8-1.7 2.267-3.683 3.117-5.95 2.55-1.293-.323-2.218-1.262-3.24-2.3-1.667-1.692-3.596-3.65-7.81-3.65Z" clip-rule="evenodd"/></g></g><defs><clipPath id="a"><path fill="#fff" d="M.05.111h34V20.89h-34z"/></clipPath></defs></svg>